PathFileType	4	(X/Y/Z)	Walk1.trc
DataRate	CameraRate	NumFrames	NumMarkers	Units	OrigDataRate	OrigDataStartFrame	OrigNumFrames
200.000000	200.000000	4	56	mm	200.000000	925	966
Frame#	Times		LToe		LBHD		RLFC		LACR1		RTH2		C7		LElbow		LUA1		RWRU		LCAR		RMT1		RCAL		LMFC		LWRU		RMT5		RMFC		RTB2		RToe		LWRR		RCAR		RTB3		RTB4		LTH4		RTB1		RFA1		LTH1		LPSI		RElbow		LFHD		RBHD		RPSI		RElbowM		LTH3		T10		RACR1		LASI		LMMAL		LTH2		RTH3		LLFC		LCAL		RMMAL		RBack		RTH1		LTB2		LTB3		RTH4		RFHD		RLMAL		LMT5		RASI		RWRR		LMT1		LLMAL		LTB1		LTB4
			X1	Y1	Z1	X2	Y2	Z2	X3	Y3	Z3	X4	Y4	Z4	X5	Y5	Z5	X6	Y6	Z6	X7	Y7	Z7	X8	Y8	Z8	X9	Y9	Z9	X10	Y10	Z10	X11	Y11	Z11	X12	Y12	Z12	X13	Y13	Z13	X14	Y14	Z14	X15	Y15	Z15	X16	Y16	Z16	X17	Y17	Z17	X18	Y18	Z18	X19	Y19	Z19	X20	Y20	Z20	X21	Y21	Z21	X22	Y22	Z22	X23	Y23	Z23	X24	Y24	Z24	X25	Y25	Z25	X26	Y26	Z26	X27	Y27	Z27	X28	Y28	Z28	X29	Y29	Z29	X30	Y30	Z30	X31	Y31	Z31	X32	Y32	Z32	X33	Y33	Z33	X34	Y34	Z34	X35	Y35	Z35	X36	Y36	Z36	X37	Y37	Z37	X38	Y38	Z38	X39	Y39	Z39	X40	Y40	Z40	X41	Y41	Z41	X42	Y42	Z42	X43	Y43	Z43	X44	Y44	Z44	X45	Y45	Z45	X46	Y46	Z46	X47	Y47	Z47	X48	Y48	Z48	X49	Y49	Z49	X50	Y50	Z50	X51	Y51	Z51	X52	Y52	Z52	X53	Y53	Z53	X54	Y54	Z54	X55	Y55	Z55	X56	Y56	Z56

925	4.625	1139.6	44.21	-20.461	957.14	1619	-50.733	1092.6	542.34	158.63	1007.8	1425.2	-154	1104.2	700.19	136.02	913.17	1484	10.589	942.66	1089.9	-277.45	981.38	1224.1	-234.15	910.58	819.99	277.09	972.65	952.01	-280.89	1007.2	56.562	91.033	815.92	125.23	82.282	972.93	498.64	24.138	1108.4	818.07	-257.77	972.05	64.822	164.37	1077.9	511.57	31.639	1026.8	325.41	155.63	1054.4	60.442	130.59	1034.1	822.74	-271.41	976.26	797.88	307.43	985.13	245.46	82.791	1032.7	321.24	77.644	994.75	671.31	-134.15	1092.2	395.68	71.256	895.89	940.82	300.2	988.87	762.15	-154.19	815.64	1042.5	-29.221	873.14	1100.9	290.47	1136.9	1632	-20.52	958.5	1614	85.921	809.69	1041.7	40.363	845.66	1105.5	209.73	1002	579.98	-110.26	830.78	1227.2	11.382	1012.5	1429.2	169.13	1014.1	1046.2	-137.69	958.61	70.058	22.447	1053	683.97	-92.017	1080.5	585.68	161.15	996.86	517.38	-100.98	873.26	33.668	-15.426	906.74	137.84	63.056	881.27	1377.6	159.93	992.9	766.53	220.32	1015.8	298.14	-80.592	997.02	209.17	-8.5325	1048.8	674.27	179.47	1138.3	1631	53.397	879.44	146.57	141	1054.5	26.314	-80.966	996.08	995.42	166.3	989.7	842.44	257.94	1091.7	30.582	-0.49275	940.9	60.133	-62.152	1030.7	391.27	-11.665	1014.6	300.84	-9.8913
926	4.63	1139.8	43.94	-20.522	961.79	1619.3	-50.603	1100.3	543.73	158.55	1012.5	1425.8	-153.9	1110.6	701.72	135.81	917.83	1484.3	10.623	949.8	1090.2	-277.91	987.46	1224.7	-234.35	914.92	820.09	276.64	981.62	952.67	-280.82	1026.8	55.623	91.121	833.61	119.48	81.705	974.61	498.51	24.004	1119.3	820.76	-257.08	991.07	62.781	164.24	1085.8	512.65	31.592	1039.2	324.85	155.49	1074	59.875	130.83	1044.9	824.34	-270.82	980.52	797.87	307	999.88	244	82.52	1045.9	320.93	77.366	997.98	671.22	-134.19	1103.2	397.34	70.879	900.31	940.92	299.82	992.67	762.09	-154.3	820.55	1042.7	-29.128	877.72	1101	290.2	1141.5	1632.4	-20.409	963.15	1614.3	86.051	814.75	1041.8	40.448	850.26	1105.7	209.45	1004.5	579.91	-110.37	835.61	1227.4	11.387	1017.2	1429.4	169.18	1019.1	1046.6	-138.01	958.6	70.006	22.526	1056	683.52	-91.895	1087.8	587.1	161.19	998.81	517.23	-101.07	873.25	33.665	-15.369	924.26	134.34	62.763	885.93	1377.8	159.85	1001.3	767.18	218.67	1016.7	297.84	-80.676	997.67	208.97	-8.6088	1055.6	675.45	179.51	1142.9	1631.4	53.515	896.43	142.22	140.6	1054.6	26.229	-81.074	1001.3	995.7	166.13	994.05	842.48	257.57	1091.7	30.655	-0.63002	940.92	60.126	-62.108	1032.1	390.89	-11.765	1015.6	300.53	-9.9536
927	4.635	1140	43.663	-20.584	966.46	1619.5	-50.48	1107.8	545	158.51	1017.3	1426.3	-153.8	1117	703.1	135.6	922.51	1484.4	10.658	956.93	1090.5	-278.37	993.51	1225.2	-234.55	919.28	820.14	276.23	990.54	953.31	-280.71	1046.5	54.757	91.226	851.54	113.76	81.072	976.36	498.36	23.87	1130.1	823.46	-256.38	1010.2	60.79	164.12	1093.5	513.61	31.574	1051.5	324.24	155.38	1093.7	59.363	131.1	1055.6	825.94	-270.19	984.82	797.82	306.58	1014.7	242.51	82.278	1059.2	320.54	77.169	1001.2	671.12	-134.25	1114.1	398.95	70.584	904.75	940.98	299.47	996.44	762	-154.43	825.46	1042.9	-29.018	882.29	1101.1	289.95	1146.1	1632.7	-20.298	967.8	1614.5	86.173	819.81	1041.9	40.549	854.86	1105.8	209.19	1007	579.82	-110.47	840.44	1227.6	11.409	1021.8	1429.5	169.24	1023.9	1046.8	-138.31	958.6	69.946	22.61	1059	683.06	-91.764	1095	588.41	161.25	1000.8	517.06	-101.16	873.24	33.661	-15.315	941.97	130.85	62.454	890.61	1377.8	159.78	1009.6	767.66	216.63	1017.7	297.53	-80.761	998.33	208.75	-8.6727	1062.2	676.54	179.56	1147.5	1631.7	53.633	913.59	137.88	140.18	1054.6	26.142	-81.188	1006.5	995.89	165.99	998.42	842.48	257.22	1091.7	30.742	-0.76488	940.95	60.12	-62.063	1033.5	390.51	-11.865	1016.6	300.19	-9.9887
928	4.64	1140.1	43.376	-20.646	971.14	1619.7	-50.362	1115.1	546.15	158.49	1022.1	1426.8	-153.68	1123.2	704.34	135.39	927.22	1484.6	10.696	964.05	1090.8	-278.81	999.56	1225.7	-234.76	923.66	820.15	275.84	999.42	953.93	-280.58	1066.3	53.98	91.35	869.71	108.07	80.389	978.18	498.2	23.738	1140.8	826.15	-255.67	1029.4	58.868	164.01	1101	514.42	31.588	1063.8	323.59	155.28	1113.6	58.923	131.41	1066.3	827.54	-269.52	989.14	797.73	306.19	1029.5	241.01	82.07	1072.4	320.09	77.06	1004.5	671.01	-134.31	1124.8	400.5	70.38	909.22	940.99	299.15	1000.2	761.9	-154.57	830.37	1043	-28.888	886.87	1101.1	289.74	1150.8	1633.1	-20.186	972.46	1614.6	86.291	824.87	1042	40.668	859.45	1105.9	208.97	1009.6	579.71	-110.58	845.29	1227.7	11.447	1026.5	1429.6	169.3	1028.6	1046.9	-138.59	958.6	69.878	22.696	1062.1	682.59	-91.627	1102	589.6	161.35	1002.8	516.87	-101.25	873.25	33.66	-15.267	959.86	127.39	62.134	895.3	1377.9	159.71	1017.8	767.98	214.28	1018.6	297.2	-80.845	998.99	208.52	-8.7222	1068.8	677.53	179.62	1152.2	1632	53.751	930.91	133.56	139.74	1054.7	26.052	-81.308	1011.7	996	165.88	1002.8	842.44	256.88	1091.7	30.836	-0.89253	940.97	60.113	-62.016	1034.9	390.11	-11.965	1017.5	299.82	-10.001
